{
  "asset": {
    "generator": "glTF-Transform v4.2.1 (screen V flipped)",
    "version": "2.0"
  },
  "accessors": [
    {
      "type": "VEC3",
      "componentType": 5126,
      "count": 1228,
      "max": [
        1.1174407005310059,
        2.5556066036224365,
        -0.2557947039604187
      ],
      "min": [
        -1.4602199792861938,
        -1,
        -2.013756513595581
      ],
      "bufferView": 0,
      "byteOffset": 0
    },
    {
      "type": "VEC3",
      "componentType": 5126,
      "count": 1228,
      "bufferView": 0,
      "byteOffset": 12
    },
    {
      "type": "VEC2",
      "componentType": 5126,
      "count": 1228,
      "bufferView": 0,
      "byteOffset": 24
    },
    {
      "type": "SCALAR",
      "componentType": 5123,
      "count": 1968,
      "bufferView": 1,
      "byteOffset": 0
    },
    {
      "type": "SCALAR",
      "componentType": 5123,
      "count": 240,
      "bufferView": 1,
      "byteOffset": 3936
    },
    {
      "type": "SCALAR",
      "componentType": 5123,
      "count": 120,
      "bufferView": 1,
      "byteOffset": 4416
    },
    {
      "type": "SCALAR",
      "componentType": 5123,
      "count": 54,
      "bufferView": 1,
      "byteOffset": 4656
    },
    {
      "type": "SCALAR",
      "componentType": 5123,
      "count": 54,
      "bufferView": 1,
      "byteOffset": 4764
    },
    {
      "type": "SCALAR",
      "componentType": 5123,
      "count": 156,
      "bufferView": 1,
      "byteOffset": 4872
    },
    {
      "type": "SCALAR",
      "componentType": 5123,
      "count": 84,
      "bufferView": 1,
      "byteOffset": 5184
    },
    {
      "type": "SCALAR",
      "componentType": 5123,
      "count": 84,
      "bufferView": 1,
      "byteOffset": 5352
    },
    {
      "type": "SCALAR",
      "componentType": 5123,
      "count": 42,
      "bufferView": 1,
      "byteOffset": 5520
    },
    {
      "type": "SCALAR",
      "componentType": 5123,
      "count": 6,
      "bufferView": 1,
      "byteOffset": 5604
    },
    {
      "type": "SCALAR",
      "componentType": 5123,
      "count": 36,
      "bufferView": 1,
      "byteOffset": 5616
    },
    {
      "type": "SCALAR",
      "componentType": 5123,
      "count": 84,
      "bufferView": 1,
      "byteOffset": 5688
    },
    {
      "type": "SCALAR",
      "componentType": 5123,
      "count": 36,
      "bufferView": 1,
      "byteOffset": 5856
    },
    {
      "type": "SCALAR",
      "componentType": 5123,
      "count": 12,
      "bufferView": 1,
      "byteOffset": 5928
    },
    {
      "type": "SCALAR",
      "componentType": 5123,
      "count": 12,
      "bufferView": 1,
      "byteOffset": 5952
    },
    {
      "type": "SCALAR",
      "componentType": 5123,
      "count": 60,
      "bufferView": 1,
      "byteOffset": 5976
    },
    {
      "type": "SCALAR",
      "componentType": 5123,
      "count": 60,
      "bufferView": 1,
      "byteOffset": 6096
    },
    {
      "type": "SCALAR",
      "componentType": 5123,
      "count": 60,
      "bufferView": 1,
      "byteOffset": 6216
    },
    {
      "type": "SCALAR",
      "componentType": 5123,
      "count": 60,
      "bufferView": 1,
      "byteOffset": 6336
    },
    {
      "type": "SCALAR",
      "componentType": 5123,
      "count": 60,
      "bufferView": 1,
      "byteOffset": 6456
    },
    {
      "type": "SCALAR",
      "componentType": 5123,
      "count": 60,
      "bufferView": 1,
      "byteOffset": 6576
    },
    {
      "type": "SCALAR",
      "componentType": 5123,
      "count": 60,
      "bufferView": 1,
      "byteOffset": 6696
    },
    {
      "type": "SCALAR",
      "componentType": 5123,
      "count": 60,
      "bufferView": 1,
      "byteOffset": 6816
    },
    {
      "type": "VEC3",
      "componentType": 5126,
      "count": 166,
      "max": [
        0.36520838737487793,
        0.8238623142242432,
        0.04903113842010498
      ],
      "min": [
        -0.3747917115688324,
        -0.6761400103569031,
        -0.05096900090575218
      ],
      "bufferView": 2,
      "byteOffset": 0
    },
    {
      "type": "VEC3",
      "componentType": 5126,
      "count": 166,
      "bufferView": 2,
      "byteOffset": 12
    },
    {
      "type": "VEC2",
      "componentType": 5126,
      "count": 166,
      "bufferView": 2,
      "byteOffset": 24
    },
    {
      "type": "VEC3",
      "componentType": 5126,
      "count": 82,
      "max": [
        0.36520838737487793,
        0.8238623142242432,
        -0.05096876993775368
      ],
      "min": [
        -0.3747917115688324,
        -0.6761400103569031,
        -0.07096899300813675
      ],
      "bufferView": 3,
      "byteOffset": 0
    },
    {
      "type": "VEC3",
      "componentType": 5126,
      "count": 82,
      "bufferView": 3,
      "byteOffset": 12
    },
    {
      "type": "VEC2",
      "componentType": 5126,
      "count": 82,
      "bufferView": 3,
      "byteOffset": 24
    },
    {
      "type": "VEC3",
      "componentType": 5126,
      "count": 20,
      "max": [
        0.34520840644836426,
        0.8038628101348877,
        0.04903113842010498
      ],
      "min": [
        -0.3547917902469635,
        -0.6561403870582581,
        0.04903101921081543
      ],
      "bufferView": 4,
      "byteOffset": 0
    },
    {
      "type": "VEC3",
      "componentType": 5126,
      "count": 20,
      "bufferView": 4,
      "byteOffset": 12
    },
    {
      "type": "VEC2",
      "componentType": 5126,
      "count": 20,
      "bufferView": 4,
      "byteOffset": 24
    },
    {
      "type": "VEC3",
      "componentType": 5126,
      "count": 20,
      "max": [
        0.3452087938785553,
        0.803862988948822,
        -0.07096874713897705
      ],
      "min": [
        -0.3547913134098053,
        -0.6561405062675476,
        -0.07096899300813675
      ],
      "bufferView": 5,
      "byteOffset": 0
    },
    {
      "type": "VEC3",
      "componentType": 5126,
      "count": 20,
      "bufferView": 5,
      "byteOffset": 12
    },
    {
      "type": "VEC2",
      "componentType": 5126,
      "count": 20,
      "bufferView": 5,
      "byteOffset": 24,
      "min": [
        0,
        0.0071482062339782715
      ],
      "max": [
        0,
        0.992851784452796
      ]
    },
    {
      "type": "VEC3",
      "componentType": 5126,
      "count": 100,
      "max": [
        -0.16787689924240112,
        0.7265961170196533,
        0.09066200256347656
      ],
      "min": [
        -0.27980709075927734,
        0.4865959882736206,
        0.07268285751342773
      ],
      "bufferView": 6,
      "byteOffset": 0
    },
    {
      "type": "VEC3",
      "componentType": 5126,
      "count": 100,
      "bufferView": 6,
      "byteOffset": 12
    },
    {
      "type": "VEC2",
      "componentType": 5126,
      "count": 100,
      "bufferView": 6,
      "byteOffset": 24
    },
    {
      "type": "VEC3",
      "componentType": 5126,
      "count": 100,
      "max": [
        -0.16479960083961487,
        0.7312070727348328,
        0.07903063297271729
      ],
      "min": [
        -0.28481578826904297,
        0.47386878728866577,
        0.04903030022978783
      ],
      "bufferView": 7,
      "byteOffset": 0
    },
    {
      "type": "VEC3",
      "componentType": 5126,
      "count": 100,
      "bufferView": 7,
      "byteOffset": 12
    },
    {
      "type": "VEC2",
      "componentType": 5126,
      "count": 100,
      "bufferView": 7,
      "byteOffset": 24
    },
    {
      "type": "VEC3",
      "componentType": 5126,
      "count": 56,
      "max": [
        0.045208510011434555,
        0.779990017414093,
        -0.07483863830566406
      ],
      "min": [
        -0.054791539907455444,
        0.7638608813285828,
        -0.07806670665740967
      ],
      "bufferView": 8,
      "byteOffset": 0
    },
    {
      "type": "VEC3",
      "componentType": 5126,
      "count": 56,
      "bufferView": 8,
      "byteOffset": 12
    },
    {
      "type": "VEC2",
      "componentType": 5126,
      "count": 56,
      "bufferView": 8,
      "byteOffset": 24
    },
    {
      "type": "VEC3",
      "componentType": 5126,
      "count": 60,
      "max": [
        0.05520787835121155,
        -0.6622632741928101,
        0.002901434898376465
      ],
      "min": [
        -0.0647924467921257,
        -0.6790416836738586,
        -0.030969860032200813
      ],
      "bufferView": 9,
      "byteOffset": 0
    },
    {
      "type": "VEC3",
      "componentType": 5126,
      "count": 60,
      "bufferView": 9,
      "byteOffset": 12
    },
    {
      "type": "VEC2",
      "componentType": 5126,
      "count": 60,
      "bufferView": 9,
      "byteOffset": 24
    },
    {
      "type": "VEC3",
      "componentType": 5126,
      "count": 26,
      "max": [
        0.36920851469039917,
        0.6838610172271729,
        0.009030461311340332
      ],
      "min": [
        0.3652082085609436,
        0.60386061668396,
        -0.030969740822911263
      ],
      "bufferView": 10,
      "byteOffset": 0
    },
    {
      "type": "VEC3",
      "componentType": 5126,
      "count": 26,
      "bufferView": 10,
      "byteOffset": 12
    },
    {
      "type": "VEC2",
      "componentType": 5126,
      "count": 26,
      "bufferView": 10,
      "byteOffset": 24
    },
    {
      "type": "VEC3",
      "componentType": 5126,
      "count": 4,
      "max": [
        0.36920851469039917,
        0.673861026763916,
        -0.010969639755785465
      ],
      "min": [
        0.3692083954811096,
        0.6138606071472168,
        -0.020969750359654427
      ],
      "bufferView": 11,
      "byteOffset": 0
    },
    {
      "type": "VEC3",
      "componentType": 5126,
      "count": 4,
      "bufferView": 11,
      "byteOffset": 12
    },
    {
      "type": "VEC2",
      "componentType": 5126,
      "count": 4,
      "bufferView": 11,
      "byteOffset": 24
    },
    {
      "type": "VEC3",
      "componentType": 5126,
      "count": 24,
      "max": [
        0.3752082884311676,
        0.6838607788085938,
        0.009030342102050781
      ],
      "min": [
        0.36520838737487793,
        0.6038609147071838,
        -0.010969639755785465
      ],
      "bufferView": 12,
      "byteOffset": 0
    },
    {
      "type": "VEC3",
      "componentType": 5126,
      "count": 24,
      "bufferView": 12,
      "byteOffset": 12
    },
    {
      "type": "VEC2",
      "componentType": 5126,
      "count": 24,
      "bufferView": 12,
      "byteOffset": 24
    },
    {
      "type": "VEC3",
      "componentType": 5126,
      "count": 24,
      "max": [
        0.3752082884311676,
        0.5438607931137085,
        0.009030461311340332
      ],
      "min": [
        0.36520838737487793,
        0.393860787153244,
        -0.020969510078430176
      ],
      "bufferView": 13,
      "byteOffset": 0
    },
    {
      "type": "VEC3",
      "componentType": 5126,
      "count": 24,
      "bufferView": 13,
      "byteOffset": 12
    },
    {
      "type": "VEC2",
      "componentType": 5126,
      "count": 24,
      "bufferView": 13,
      "byteOffset": 24
    },
    {
      "type": "VEC3",
      "componentType": 5126,
      "count": 24,
      "max": [
        0.3752082884311676,
        0.35386091470718384,
        0.009030581451952457
      ],
      "min": [
        0.36520838737487793,
        0.20386089384555817,
        -0.020969390869140625
      ],
      "bufferView": 14,
      "byteOffset": 0
    },
    {
      "type": "VEC3",
      "componentType": 5126,
      "count": 24,
      "bufferView": 14,
      "byteOffset": 12
    },
    {
      "type": "VEC2",
      "componentType": 5126,
      "count": 24,
      "bufferView": 14,
      "byteOffset": 24
    },
    {
      "type": "VEC3",
      "componentType": 5126,
      "count": 24,
      "max": [
        -0.37479180097579956,
        0.5038611888885498,
        0.009030342102050781
      ],
      "min": [
        -0.38479191064834595,
        0.24386100471019745,
        -0.020969629287719727
      ],
      "bufferView": 15,
      "byteOffset": 0
    },
    {
      "type": "VEC3",
      "componentType": 5126,
      "count": 24,
      "bufferView": 15,
      "byteOffset": 12
    },
    {
      "type": "VEC2",
      "componentType": 5126,
      "count": 24,
      "bufferView": 15,
      "byteOffset": 24
    },
    {
      "type": "VEC3",
      "componentType": 5126,
      "count": 50,
      "max": [
        0.17520800232887268,
        0.803862988948822,
        -0.0709686279296875
      ],
      "min": [
        -0.18479189276695251,
        0.7438626289367676,
        -0.0745469331741333
      ],
      "bufferView": 16,
      "byteOffset": 0
    },
    {
      "type": "VEC3",
      "componentType": 5126,
      "count": 50,
      "bufferView": 16,
      "byteOffset": 12
    },
    {
      "type": "VEC2",
      "componentType": 5126,
      "count": 50,
      "bufferView": 16,
      "byteOffset": 24
    },
    {
      "type": "VEC3",
      "componentType": 5126,
      "count": 28,
      "max": [
        -0.07444599270820618,
        0.7819256782531738,
        -0.07484042644500732
      ],
      "min": [
        -0.09176647663116455,
        0.7619256973266602,
        -0.07861149311065674
      ],
      "bufferView": 17,
      "byteOffset": 0
    },
    {
      "type": "VEC3",
      "componentType": 5126,
      "count": 28,
      "bufferView": 17,
      "byteOffset": 12
    },
    {
      "type": "VEC2",
      "componentType": 5126,
      "count": 28,
      "bufferView": 17,
      "byteOffset": 24
    },
    {
      "type": "VEC3",
      "componentType": 5126,
      "count": 6,
      "max": [
        -0.07444599270820618,
        0.7819256782531738,
        -0.07861149311065674
      ],
      "min": [
        -0.09176647663116455,
        0.7619256973266602,
        -0.07861149311065674
      ],
      "bufferView": 18,
      "byteOffset": 0
    },
    {
      "type": "VEC3",
      "componentType": 5126,
      "count": 6,
      "bufferView": 18,
      "byteOffset": 12
    },
    {
      "type": "VEC2",
      "componentType": 5126,
      "count": 6,
      "bufferView": 18,
      "byteOffset": 24
    },
    {
      "type": "VEC3",
      "componentType": 5126,
      "count": 6,
      "max": [
        -0.07444599270820618,
        0.7819256782531738,
        -0.07484042644500732
      ],
      "min": [
        -0.09176644682884216,
        0.7619256973266602,
        -0.07484042644500732
      ],
      "bufferView": 19,
      "byteOffset": 0
    },
    {
      "type": "VEC3",
      "componentType": 5126,
      "count": 6,
      "bufferView": 19,
      "byteOffset": 12
    },
    {
      "type": "VEC2",
      "componentType": 5126,
      "count": 6,
      "bufferView": 19,
      "byteOffset": 24
    },
    {
      "type": "VEC3",
      "componentType": 5126,
      "count": 38,
      "max": [
        -0.2057534009218216,
        -0.6747419834136963,
        -0.0018193719442933798
      ],
      "min": [
        -0.22575190663337708,
        -0.6792802810668945,
        -0.019648190587759018
      ],
      "bufferView": 20,
      "byteOffset": 0
    },
    {
      "type": "VEC3",
      "componentType": 5126,
      "count": 38,
      "bufferView": 20,
      "byteOffset": 12
    },
    {
      "type": "VEC2",
      "componentType": 5126,
      "count": 38,
      "bufferView": 20,
      "byteOffset": 24
    },
    {
      "type": "VEC3",
      "componentType": 5126,
      "count": 38,
      "max": [
        -0.18884670734405518,
        0.6371889114379883,
        0.0948714017868042
      ],
      "min": [
        -0.2588373124599457,
        0.5760030746459961,
        0.0816723108291626
      ],
      "bufferView": 21,
      "byteOffset": 0
    },
    {
      "type": "VEC3",
      "componentType": 5126,
      "count": 38,
      "bufferView": 21,
      "byteOffset": 12
    },
    {
      "type": "VEC2",
      "componentType": 5126,
      "count": 38,
      "bufferView": 21,
      "byteOffset": 24
    },
    {
      "type": "VEC3",
      "componentType": 5126,
      "count": 36,
      "max": [
        -0.21073919534683228,
        0.6975557804107666,
        0.09631931781768799
      ],
      "min": [
        -0.24074320495128632,
        0.6715714931488037,
        0.09066175669431686
      ],
      "bufferView": 22,
      "byteOffset": 0
    },
    {
      "type": "VEC3",
      "componentType": 5126,
      "count": 36,
      "bufferView": 22,
      "byteOffset": 12
    },
    {
      "type": "VEC2",
      "componentType": 5126,
      "count": 36,
      "bufferView": 22,
      "byteOffset": 24
    },
    {
      "type": "VEC3",
      "componentType": 5126,
      "count": 36,
      "max": [
        -0.21169179677963257,
        0.5503243207931519,
        0.09751737117767334
      ],
      "min": [
        -0.24186170101165771,
        0.5238519906997681,
        0.09083676338195801
      ],
      "bufferView": 23,
      "byteOffset": 0
    },
    {
      "type": "VEC3",
      "componentType": 5126,
      "count": 36,
      "bufferView": 23,
      "byteOffset": 12
    },
    {
      "type": "VEC2",
      "componentType": 5126,
      "count": 36,
      "bufferView": 23,
      "byteOffset": 24
    },
    {
      "type": "VEC3",
      "componentType": 5126,
      "count": 36,
      "max": [
        0.07611826062202454,
        0.42349788546562195,
        0.05305147171020508
      ],
      "min": [
        -0.08470150828361511,
        0.2842237949371338,
        0.04903078079223633
      ],
      "bufferView": 24,
      "byteOffset": 0
    },
    {
      "type": "VEC3",
      "componentType": 5126,
      "count": 36,
      "bufferView": 24,
      "byteOffset": 12
    },
    {
      "type": "VEC2",
      "componentType": 5126,
      "count": 36,
      "bufferView": 24,
      "byteOffset": 24
    },
    {
      "type": "VEC3",
      "componentType": 5126,
      "count": 36,
      "max": [
        -0.07613140344619751,
        -0.6761391162872314,
        -0.002309321891516447
      ],
      "min": [
        -0.09613140672445297,
        -0.6799103021621704,
        -0.019629960879683495
      ],
      "bufferView": 25,
      "byteOffset": 0
    },
    {
      "type": "VEC3",
      "componentType": 5126,
      "count": 36,
      "bufferView": 25,
      "byteOffset": 12
    },
    {
      "type": "VEC2",
      "componentType": 5126,
      "count": 36,
      "bufferView": 25,
      "byteOffset": 24
    },
    {
      "type": "VEC3",
      "componentType": 5126,
      "count": 36,
      "max": [
        0.0865480899810791,
        -0.6761391162872314,
        -0.002309321891516447
      ],
      "min": [
        0.06654807925224304,
        -0.6799101829528809,
        -0.019629960879683495
      ],
      "bufferView": 26,
      "byteOffset": 0
    },
    {
      "type": "VEC3",
      "componentType": 5126,
      "count": 36,
      "bufferView": 26,
      "byteOffset": 12
    },
    {
      "type": "VEC2",
      "componentType": 5126,
      "count": 36,
      "bufferView": 26,
      "byteOffset": 24
    },
    {
      "type": "VEC3",
      "componentType": 5126,
      "count": 36,
      "max": [
        -0.12345190346240997,
        -0.6746233105659485,
        -0.0028430221136659384
      ],
      "min": [
        -0.14345189929008484,
        -0.678394615650177,
        -0.020163660869002342
      ],
      "bufferView": 27,
      "byteOffset": 0
    },
    {
      "type": "VEC3",
      "componentType": 5126,
      "count": 36,
      "bufferView": 27,
      "byteOffset": 12
    },
    {
      "type": "VEC2",
      "componentType": 5126,
      "count": 36,
      "bufferView": 27,
      "byteOffset": 24
    },
    {
      "type": "VEC3",
      "componentType": 5126,
      "count": 36,
      "max": [
        -0.15077239274978638,
        -0.6746233105659485,
        -0.0028430221136659384
      ],
      "min": [
        -0.17077240347862244,
        -0.678394615650177,
        -0.020163660869002342
      ],
      "bufferView": 28,
      "byteOffset": 0
    },
    {
      "type": "VEC3",
      "componentType": 5126,
      "count": 36,
      "bufferView": 28,
      "byteOffset": 12
    },
    {
      "type": "VEC2",
      "componentType": 5126,
      "count": 36,
      "bufferView": 28,
      "byteOffset": 24
    },
    {
      "type": "VEC3",
      "componentType": 5126,
      "count": 40,
      "max": [
        -0.1780392974615097,
        -0.6737564206123352,
        -0.0023286340292543173
      ],
      "min": [
        -0.19810150563716888,
        -0.6788614988327026,
        -0.01986538991332054
      ],
      "bufferView": 29,
      "byteOffset": 0
    },
    {
      "type": "VEC3",
      "componentType": 5126,
      "count": 40,
      "bufferView": 29,
      "byteOffset": 12
    },
    {
      "type": "VEC2",
      "componentType": 5126,
      "count": 40,
      "bufferView": 29,
      "byteOffset": 24
    },
    {
      "type": "VEC3",
      "componentType": 5126,
      "count": 36,
      "max": [
        -0.23273730278015137,
        -0.6752223968505859,
        -0.0028721089474856853
      ],
      "min": [
        -0.25274959206581116,
        -0.6796014904975891,
        -0.0205461997538805
      ],
      "bufferView": 30,
      "byteOffset": 0
    },
    {
      "type": "VEC3",
      "componentType": 5126,
      "count": 36,
      "bufferView": 30,
      "byteOffset": 12
    },
    {
      "type": "VEC2",
      "componentType": 5126,
      "count": 36,
      "bufferView": 30,
      "byteOffset": 24
    },
    {
      "type": "VEC3",
      "componentType": 5126,
      "count": 42,
      "max": [
        -0.2602800130844116,
        -0.6749277114868164,
        -0.0026297569274902344
      ],
      "min": [
        -0.280337393283844,
        -0.6796302199363708,
        -0.02042257972061634
      ],
      "bufferView": 31,
      "byteOffset": 0
    },
    {
      "type": "VEC3",
      "componentType": 5126,
      "count": 42,
      "bufferView": 31,
      "byteOffset": 12
    },
    {
      "type": "VEC2",
      "componentType": 5126,
      "count": 42,
      "bufferView": 31,
      "byteOffset": 24
    },
    {
      "type": "VEC3",
      "componentType": 5126,
      "count": 36,
      "max": [
        0.18654809892177582,
        -0.6761391162872314,
        -0.00284314202144742
      ],
      "min": [
        0.1665482074022293,
        -0.6799103021621704,
        -0.020163770765066147
      ],
      "bufferView": 32,
      "byteOffset": 0
    },
    {
      "type": "VEC3",
      "componentType": 5126,
      "count": 36,
      "bufferView": 32,
      "byteOffset": 12
    },
    {
      "type": "VEC2",
      "componentType": 5126,
      "count": 36,
      "bufferView": 32,
      "byteOffset": 24
    },
    {
      "type": "VEC3",
      "componentType": 5126,
      "count": 36,
      "max": [
        0.15922769904136658,
        -0.6761391162872314,
        -0.00284314202144742
      ],
      "min": [
        0.1392277032136917,
        -0.6799103021621704,
        -0.020163770765066147
      ],
      "bufferView": 33,
      "byteOffset": 0
    },
    {
      "type": "VEC3",
      "componentType": 5126,
      "count": 36,
      "bufferView": 33,
      "byteOffset": 12
    },
    {
      "type": "VEC2",
      "componentType": 5126,
      "count": 36,
      "bufferView": 33,
      "byteOffset": 24
    },
    {
      "type": "VEC3",
      "componentType": 5126,
      "count": 47,
      "max": [
        0.1319607049226761,
        -0.6752722263336182,
        -0.0023287530057132244
      ],
      "min": [
        0.11189860105514526,
        -0.680377185344696,
        -0.019865509122610092
      ],
      "bufferView": 34,
      "byteOffset": 0
    },
    {
      "type": "VEC3",
      "componentType": 5126,
      "count": 47,
      "bufferView": 34,
      "byteOffset": 12
    },
    {
      "type": "VEC2",
      "componentType": 5126,
      "count": 47,
      "bufferView": 34,
      "byteOffset": 24
    }
  ],
  "bufferViews": [
    {
      "buffer": 0,
      "byteOffset": 0,
      "byteLength": 39296,
      "byteStride": 32,
      "target": 34962
    },
    {
      "buffer": 0,
      "byteOffset": 39296,
      "byteLength": 6936,
      "target": 34963
    },
    {
      "buffer": 0,
      "byteOffset": 46232,
      "byteLength": 5312,
      "byteStride": 32,
      "target": 34962
    },
    {
      "buffer": 0,
      "byteOffset": 51544,
      "byteLength": 2624,
      "byteStride": 32,
      "target": 34962
    },
    {
      "buffer": 0,
      "byteOffset": 54168,
      "byteLength": 640,
      "byteStride": 32,
      "target": 34962
    },
    {
      "buffer": 0,
      "byteOffset": 54808,
      "byteLength": 640,
      "byteStride": 32,
      "target": 34962
    },
    {
      "buffer": 0,
      "byteOffset": 55448,
      "byteLength": 3200,
      "byteStride": 32,
      "target": 34962
    },
    {
      "buffer": 0,
      "byteOffset": 58648,
      "byteLength": 3200,
      "byteStride": 32,
      "target": 34962
    },
    {
      "buffer": 0,
      "byteOffset": 61848,
      "byteLength": 1792,
      "byteStride": 32,
      "target": 34962
    },
    {
      "buffer": 0,
      "byteOffset": 63640,
      "byteLength": 1920,
      "byteStride": 32,
      "target": 34962
    },
    {
      "buffer": 0,
      "byteOffset": 65560,
      "byteLength": 832,
      "byteStride": 32,
      "target": 34962
    },
    {
      "buffer": 0,
      "byteOffset": 66392,
      "byteLength": 128,
      "byteStride": 32,
      "target": 34962
    },
    {
      "buffer": 0,
      "byteOffset": 66520,
      "byteLength": 768,
      "byteStride": 32,
      "target": 34962
    },
    {
      "buffer": 0,
      "byteOffset": 67288,
      "byteLength": 768,
      "byteStride": 32,
      "target": 34962
    },
    {
      "buffer": 0,
      "byteOffset": 68056,
      "byteLength": 768,
      "byteStride": 32,
      "target": 34962
    },
    {
      "buffer": 0,
      "byteOffset": 68824,
      "byteLength": 768,
      "byteStride": 32,
      "target": 34962
    },
    {
      "buffer": 0,
      "byteOffset": 69592,
      "byteLength": 1600,
      "byteStride": 32,
      "target": 34962
    },
    {
      "buffer": 0,
      "byteOffset": 71192,
      "byteLength": 896,
      "byteStride": 32,
      "target": 34962
    },
    {
      "buffer": 0,
      "byteOffset": 72088,
      "byteLength": 192,
      "byteStride": 32,
      "target": 34962
    },
    {
      "buffer": 0,
      "byteOffset": 72280,
      "byteLength": 192,
      "byteStride": 32,
      "target": 34962
    },
    {
      "buffer": 0,
      "byteOffset": 72472,
      "byteLength": 1216,
      "byteStride": 32,
      "target": 34962
    },
    {
      "buffer": 0,
      "byteOffset": 73688,
      "byteLength": 1216,
      "byteStride": 32,
      "target": 34962
    },
    {
      "buffer": 0,
      "byteOffset": 74904,
      "byteLength": 1152,
      "byteStride": 32,
      "target": 34962
    },
    {
      "buffer": 0,
      "byteOffset": 76056,
      "byteLength": 1152,
      "byteStride": 32,
      "target": 34962
    },
    {
      "buffer": 0,
      "byteOffset": 77208,
      "byteLength": 1152,
      "byteStride": 32,
      "target": 34962
    },
    {
      "buffer": 0,
      "byteOffset": 78360,
      "byteLength": 1152,
      "byteStride": 32,
      "target": 34962
    },
    {
      "buffer": 0,
      "byteOffset": 79512,
      "byteLength": 1152,
      "byteStride": 32,
      "target": 34962
    },
    {
      "buffer": 0,
      "byteOffset": 80664,
      "byteLength": 1152,
      "byteStride": 32,
      "target": 34962
    },
    {
      "buffer": 0,
      "byteOffset": 81816,
      "byteLength": 1152,
      "byteStride": 32,
      "target": 34962
    },
    {
      "buffer": 0,
      "byteOffset": 82968,
      "byteLength": 1280,
      "byteStride": 32,
      "target": 34962
    },
    {
      "buffer": 0,
      "byteOffset": 84248,
      "byteLength": 1152,
      "byteStride": 32,
      "target": 34962
    },
    {
      "buffer": 0,
      "byteOffset": 85400,
      "byteLength": 1344,
      "byteStride": 32,
      "target": 34962
    },
    {
      "buffer": 0,
      "byteOffset": 86744,
      "byteLength": 1152,
      "byteStride": 32,
      "target": 34962
    },
    {
      "buffer": 0,
      "byteOffset": 87896,
      "byteLength": 1152,
      "byteStride": 32,
      "target": 34962
    },
    {
      "buffer": 0,
      "byteOffset": 89048,
      "byteLength": 1504,
      "byteStride": 32,
      "target": 34962
    }
  ],
  "samplers": [
    {
      "magFilter": 9729,
      "minFilter": 9987,
      "wrapS": 10497,
      "wrapT": 10497
    }
  ],
  "textures": [
    {
      "source": 0,
      "sampler": 0
    }
  ],
  "images": [
    {
      "name": "CICwithWaypoints",
      "mimeType": "image/jpeg",
      "uri": "baseColor.jpg"
    }
  ],
  "buffers": [
    {
      "uri": "HandPhone.bin",
      "byteLength": 90552
    }
  ],
  "materials": [
    {
      "name": "Material",
      "doubleSided": true,
      "pbrMetallicRoughness": {
        "baseColorFactor": [
          1,
          0.5333333333333333,
         0.3647058823529412,
          1
        ],
        "roughnessFactor": 0.31690141558647156,
        "metallicFactor": 0.2535211443901062
      }
    },
    {
      "name": "mat16",
      "pbrMetallicRoughness": {
        "baseColorFactor": [
          0.1899999976158142,
          0.2800000011920929,
          0.3400000035762787,
          1
        ],
        "roughnessFactor": 0.6619718074798584,
        "metallicFactor": 0.47887325286865234
      }
    },
    {
      "name": "mat23",
      "pbrMetallicRoughness": {
        "baseColorFactor": [
          0.009999999776482582,
          0.009999999776482582,
          0.009999999776482582,
          1
        ],
        "metallicFactor": 0
      }
    },
    {
      "name": "mat17",
      "pbrMetallicRoughness": {
        "baseColorFactor": [
          0.05999999865889549,
          0.10000000149011612,
          0.12999999523162842,
          1
        ],
        "metallicFactor": 0.5070422291755676
      }
    },
    {
      "name": "Material.001",
      "doubleSided": true,
      "pbrMetallicRoughness": {
        "roughnessFactor": 0.5,
        "metallicFactor": 0,
        "baseColorTexture": {
          "index": 0,
          "extensions": {
            "KHR_texture_transform": {
              "rotation": 3.14159265,
              "center": [
                0.5,
                0.5
              ]
            }
          }
        }
      }
    },
    {
      "name": "mat8",
      "pbrMetallicRoughness": {
        "baseColorFactor": [
          0.9100000262260437,
          0.05000000074505806,
          0.029999999329447746,
          1
        ],
        "metallicFactor": 0
      }
    },
    {
      "name": "mat24",
      "alphaMode": "BLEND",
      "doubleSided": true,
      "pbrMetallicRoughness": {
        "baseColorFactor": [
          0.8299999833106995,
          0.8899999856948853,
          0.8700000047683716,
          0.4000000059604645
        ],
        "roughnessFactor": 0.699999988079071,
        "metallicFactor": 0
      }
    },
    {
      "name": "mat25",
      "alphaMode": "BLEND",
      "doubleSided": true,
      "pbrMetallicRoughness": {
        "baseColorFactor": [
          0.8299999833106995,
          0.8899999856948853,
          0.8700000047683716,
          0.4000000059604645
        ],
        "roughnessFactor": 0.699999988079071,
        "metallicFactor": 0
      }
    },
    {
      "name": "mat5",
      "pbrMetallicRoughness": {
        "baseColorFactor": [
          0,
          0.3400000035762787,
          0.7900000214576721,
          1
        ],
        "metallicFactor": 0
      }
    },
    {
      "name": "mat15",
      "pbrMetallicRoughness": {
        "baseColorFactor": [
          0.6299999952316284,
          0.699999988079071,
          0.7200000286102295,
          1
        ],
        "metallicFactor": 0
      }
    }
  ],
  "meshes": [
    {
      "name": "Cube",
      "primitives": [
        {
          "attributes": {
            "POSITION": 0,
            "NORMAL": 1,
            "TEXCOORD_0": 2
          },
          "mode": 4,
          "material": 0,
          "indices": 3
        }
      ]
    },
    {
      "name": "mesh817659832",
      "primitives": [
        {
          "attributes": {
            "POSITION": 26,
            "NORMAL": 27,
            "TEXCOORD_0": 28
          },
          "mode": 4,
          "material": 1,
          "indices": 4
        },
        {
          "attributes": {
            "POSITION": 29,
            "NORMAL": 30,
            "TEXCOORD_0": 31
          },
          "mode": 4,
          "material": 2,
          "indices": 5
        },
        {
          "attributes": {
            "POSITION": 32,
            "NORMAL": 33,
            "TEXCOORD_0": 34
          },
          "mode": 4,
          "material": 3,
          "indices": 6
        },
        {
          "attributes": {
            "POSITION": 35,
            "NORMAL": 36,
            "TEXCOORD_0": 37
          },
          "mode": 4,
          "material": 4,
          "indices": 7
        }
      ]
    },
    {
      "name": "mesh40103501",
      "primitives": [
        {
          "attributes": {
            "POSITION": 38,
            "NORMAL": 39,
            "TEXCOORD_0": 40
          },
          "mode": 4,
          "material": 2,
          "indices": 8
        }
      ]
    },
    {
      "name": "mesh465359774",
      "primitives": [
        {
          "attributes": {
            "POSITION": 41,
            "NORMAL": 42,
            "TEXCOORD_0": 43
          },
          "mode": 4,
          "material": 3,
          "indices": 8
        }
      ]
    },
    {
      "name": "mesh1120752718",
      "primitives": [
        {
          "attributes": {
            "POSITION": 44,
            "NORMAL": 45,
            "TEXCOORD_0": 46
          },
          "mode": 4,
          "material": 3,
          "indices": 9
        }
      ]
    },
    {
      "name": "mesh1884584545",
      "primitives": [
        {
          "attributes": {
            "POSITION": 47,
            "NORMAL": 48,
            "TEXCOORD_0": 49
          },
          "mode": 4,
          "material": 2,
          "indices": 10
        }
      ]
    },
    {
      "name": "mesh641155211",
      "primitives": [
        {
          "attributes": {
            "POSITION": 50,
            "NORMAL": 51,
            "TEXCOORD_0": 52
          },
          "mode": 4,
          "material": 1,
          "indices": 11
        },
        {
          "attributes": {
            "POSITION": 53,
            "NORMAL": 54,
            "TEXCOORD_0": 55
          },
          "mode": 4,
          "material": 5,
          "indices": 12
        }
      ]
    },
    {
      "name": "mesh1224932749",
      "primitives": [
        {
          "attributes": {
            "POSITION": 56,
            "NORMAL": 57,
            "TEXCOORD_0": 58
          },
          "mode": 4,
          "material": 3,
          "indices": 13
        }
      ]
    },
    {
      "name": "mesh849457402",
      "primitives": [
        {
          "attributes": {
            "POSITION": 59,
            "NORMAL": 60,
            "TEXCOORD_0": 61
          },
          "mode": 4,
          "material": 3,
          "indices": 13
        }
      ]
    },
    {
      "name": "mesh1152579848",
      "primitives": [
        {
          "attributes": {
            "POSITION": 62,
            "NORMAL": 63,
            "TEXCOORD_0": 64
          },
          "mode": 4,
          "material": 3,
          "indices": 13
        }
      ]
    },
    {
      "name": "mesh1637273763",
      "primitives": [
        {
          "attributes": {
            "POSITION": 65,
            "NORMAL": 66,
            "TEXCOORD_0": 67
          },
          "mode": 4,
          "material": 3,
          "indices": 13
        }
      ]
    },
    {
      "name": "mesh660411554",
      "primitives": [
        {
          "attributes": {
            "POSITION": 68,
            "NORMAL": 69,
            "TEXCOORD_0": 70
          },
          "mode": 4,
          "material": 2,
          "indices": 14
        }
      ]
    },
    {
      "name": "mesh1674681057",
      "primitives": [
        {
          "attributes": {
            "POSITION": 71,
            "NORMAL": 72,
            "TEXCOORD_0": 73
          },
          "mode": 4,
          "material": 6,
          "indices": 15
        },
        {
          "attributes": {
            "POSITION": 74,
            "NORMAL": 75,
            "TEXCOORD_0": 76
          },
          "mode": 4,
          "material": 7,
          "indices": 16
        },
        {
          "attributes": {
            "POSITION": 77,
            "NORMAL": 78,
            "TEXCOORD_0": 79
          },
          "mode": 4,
          "material": 8,
          "indices": 17
        }
      ]
    },
    {
      "name": "mesh31295272",
      "primitives": [
        {
          "attributes": {
            "POSITION": 80,
            "NORMAL": 81,
            "TEXCOORD_0": 82
          },
          "mode": 4,
          "material": 2,
          "indices": 18
        }
      ]
    },
    {
      "name": "mesh1982349354",
      "primitives": [
        {
          "attributes": {
            "POSITION": 83,
            "NORMAL": 84,
            "TEXCOORD_0": 85
          },
          "mode": 4,
          "material": 7,
          "indices": 19
        }
      ]
    },
    {
      "name": "mesh2136648518",
      "primitives": [
        {
          "attributes": {
            "POSITION": 86,
            "NORMAL": 87,
            "TEXCOORD_0": 88
          },
          "mode": 4,
          "material": 6,
          "indices": 20
        }
      ]
    },
    {
      "name": "mesh1909018237",
      "primitives": [
        {
          "attributes": {
            "POSITION": 89,
            "NORMAL": 90,
            "TEXCOORD_0": 91
          },
          "mode": 4,
          "material": 6,
          "indices": 21
        }
      ]
    },
    {
      "name": "mesh1638188736",
      "primitives": [
        {
          "attributes": {
            "POSITION": 92,
            "NORMAL": 93,
            "TEXCOORD_0": 94
          },
          "mode": 4,
          "material": 2,
          "indices": 21
        }
      ]
    },
    {
      "name": "mesh1013736083",
      "primitives": [
        {
          "attributes": {
            "POSITION": 95,
            "NORMAL": 96,
            "TEXCOORD_0": 97
          },
          "mode": 4,
          "material": 9,
          "indices": 22
        }
      ]
    },
    {
      "name": "mesh1124957205",
      "primitives": [
        {
          "attributes": {
            "POSITION": 98,
            "NORMAL": 99,
            "TEXCOORD_0": 100
          },
          "mode": 4,
          "material": 9,
          "indices": 22
        }
      ]
    },
    {
      "name": "mesh1113113092",
      "primitives": [
        {
          "attributes": {
            "POSITION": 101,
            "NORMAL": 102,
            "TEXCOORD_0": 103
          },
          "mode": 4,
          "material": 2,
          "indices": 22
        }
      ]
    },
    {
      "name": "mesh15167646",
      "primitives": [
        {
          "attributes": {
            "POSITION": 104,
            "NORMAL": 105,
            "TEXCOORD_0": 106
          },
          "mode": 4,
          "material": 2,
          "indices": 22
        }
      ]
    },
    {
      "name": "mesh291280508",
      "primitives": [
        {
          "attributes": {
            "POSITION": 107,
            "NORMAL": 108,
            "TEXCOORD_0": 109
          },
          "mode": 4,
          "material": 2,
          "indices": 23
        }
      ]
    },
    {
      "name": "mesh261416222",
      "primitives": [
        {
          "attributes": {
            "POSITION": 110,
            "NORMAL": 111,
            "TEXCOORD_0": 112
          },
          "mode": 4,
          "material": 2,
          "indices": 22
        }
      ]
    },
    {
      "name": "mesh1910001921",
      "primitives": [
        {
          "attributes": {
            "POSITION": 113,
            "NORMAL": 114,
            "TEXCOORD_0": 115
          },
          "mode": 4,
          "material": 2,
          "indices": 24
        }
      ]
    },
    {
      "name": "mesh1251928019",
      "primitives": [
        {
          "attributes": {
            "POSITION": 116,
            "NORMAL": 117,
            "TEXCOORD_0": 118
          },
          "mode": 4,
          "material": 2,
          "indices": 22
        }
      ]
    },
    {
      "name": "mesh1821786415",
      "primitives": [
        {
          "attributes": {
            "POSITION": 119,
            "NORMAL": 120,
            "TEXCOORD_0": 121
          },
          "mode": 4,
          "material": 2,
          "indices": 22
        }
      ]
    },
    {
      "name": "mesh1896686979",
      "primitives": [
        {
          "attributes": {
            "POSITION": 122,
            "NORMAL": 123,
            "TEXCOORD_0": 124
          },
          "mode": 4,
          "material": 2,
          "indices": 25
        }
      ]
    }
  ],
  "nodes": [
    {
      "name": "Cube",
      "translation": [
        0,
        0,
        -0.060676708817481995
      ],
      "rotation": [
        0,
        0,
        -0.4552566111087799,
        0.8903602957725525
      ],
      "mesh": 0
    },
    {
      "name": "group817659832",
      "translation": [
        0.5034818649291992,
        0.7445969581604004,
        -1.2585309743881226
      ],
      "rotation": [
        0.018301397562026978,
        0.06468281894922256,
        -0.013795469887554646,
        0.9976427555084229
      ],
      "scale": [
        2.2468926906585693,
        2.2468929290771484,
        2.2468929290771484
      ],
      "mesh": 1
    },
    {
      "name": "group40103501",
      "translation": [
        0.5034818649291992,
        0.7445969581604004,
        -1.2585309743881226
      ],
      "rotation": [
        0.018301397562026978,
        0.06468281894922256,
        -0.013795469887554646,
        0.9976427555084229
      ],
      "scale": [
        2.2468926906585693,
        2.2468929290771484,
        2.2468929290771484
      ],
      "mesh": 2
    },
    {
      "name": "group465359774",
      "translation": [
        0.5034818649291992,
        0.7445969581604004,
        -1.2585309743881226
      ],
      "rotation": [
        0.018301397562026978,
        0.06468281894922256,
        -0.013795469887554646,
        0.9976427555084229
      ],
      "scale": [
        2.2468926906585693,
        2.2468929290771484,
        2.2468929290771484
      ],
      "mesh": 3
    },
    {
      "name": "group1120752718",
      "translation": [
        0.5034818649291992,
        0.7445969581604004,
        -1.2585309743881226
      ],
      "rotation": [
        0.018301397562026978,
        0.06468281894922256,
        -0.013795469887554646,
        0.9976427555084229
      ],
      "scale": [
        2.2468926906585693,
        2.2468929290771484,
        2.2468929290771484
      ],
      "mesh": 4
    },
    {
      "name": "group1884584545",
      "translation": [
        0.5034818649291992,
        0.7445969581604004,
        -1.2585309743881226
      ],
      "rotation": [
        0.018301397562026978,
        0.06468281894922256,
        -0.013795469887554646,
        0.9976427555084229
      ],
      "scale": [
        2.2468926906585693,
        2.2468929290771484,
        2.2468929290771484
      ],
      "mesh": 5
    },
    {
      "name": "group641155211",
      "translation": [
        0.5034818649291992,
        0.7445969581604004,
        -1.2585309743881226
      ],
      "rotation": [
        0.018301397562026978,
        0.06468281894922256,
        -0.013795469887554646,
        0.9976427555084229
      ],
      "scale": [
        2.2468926906585693,
        2.2468929290771484,
        2.2468929290771484
      ],
      "mesh": 6
    },
    {
      "name": "group1224932749",
      "translation": [
        0.5034818649291992,
        0.7445969581604004,
        -1.2585309743881226
      ],
      "rotation": [
        0.018301397562026978,
        0.06468281894922256,
        -0.013795469887554646,
        0.9976427555084229
      ],
      "scale": [
        2.2468926906585693,
        2.2468929290771484,
        2.2468929290771484
      ],
      "mesh": 7
    },
    {
      "name": "group849457402",
      "translation": [
        0.5034818649291992,
        0.7445969581604004,
        -1.2585309743881226
      ],
      "rotation": [
        0.018301397562026978,
        0.06468281894922256,
        -0.013795469887554646,
        0.9976427555084229
      ],
      "scale": [
        2.2468926906585693,
        2.2468929290771484,
        2.2468929290771484
      ],
      "mesh": 8
    },
    {
      "name": "group1152579848",
      "translation": [
        0.5034818649291992,
        0.7445969581604004,
        -1.2585309743881226
      ],
      "rotation": [
        0.018301397562026978,
        0.06468281894922256,
        -0.013795469887554646,
        0.9976427555084229
      ],
      "scale": [
        2.2468926906585693,
        2.2468929290771484,
        2.2468929290771484
      ],
      "mesh": 9
    },
    {
      "name": "group1637273763",
      "translation": [
        0.5034818649291992,
        0.7445969581604004,
        -1.2585309743881226
      ],
      "rotation": [
        0.018301397562026978,
        0.06468281894922256,
        -0.013795469887554646,
        0.9976427555084229
      ],
      "scale": [
        2.2468926906585693,
        2.2468929290771484,
        2.2468929290771484
      ],
      "mesh": 10
    },
    {
      "name": "group660411554",
      "translation": [
        0.5034818649291992,
        0.7445969581604004,
        -1.2585309743881226
      ],
      "rotation": [
        0.018301397562026978,
        0.06468281894922256,
        -0.013795469887554646,
        0.9976427555084229
      ],
      "scale": [
        2.2468926906585693,
        2.2468929290771484,
        2.2468929290771484
      ],
      "mesh": 11
    },
    {
      "name": "group1674681057",
      "translation": [
        0.5034818649291992,
        0.7445969581604004,
        -1.2585309743881226
      ],
      "rotation": [
        0.018301397562026978,
        0.06468281894922256,
        -0.013795469887554646,
        0.9976427555084229
      ],
      "scale": [
        2.2468926906585693,
        2.2468929290771484,
        2.2468929290771484
      ],
      "mesh": 12
    },
    {
      "name": "group31295272",
      "translation": [
        0.5034818649291992,
        0.7445969581604004,
        -1.2585309743881226
      ],
      "rotation": [
        0.018301397562026978,
        0.06468281894922256,
        -0.013795469887554646,
        0.9976427555084229
      ],
      "scale": [
        2.2468926906585693,
        2.2468929290771484,
        2.2468929290771484
      ],
      "mesh": 13
    },
    {
      "name": "group1982349354",
      "translation": [
        0.5034818649291992,
        0.7445969581604004,
        -1.2585309743881226
      ],
      "rotation": [
        0.018301397562026978,
        0.06468281894922256,
        -0.013795469887554646,
        0.9976427555084229
      ],
      "scale": [
        2.2468926906585693,
        2.2468929290771484,
        2.2468929290771484
      ],
      "mesh": 14
    },
    {
      "name": "group2136648518",
      "translation": [
        0.5034818649291992,
        0.7445969581604004,
        -1.2585309743881226
      ],
      "rotation": [
        0.018301397562026978,
        0.06468281894922256,
        -0.013795469887554646,
        0.9976427555084229
      ],
      "scale": [
        2.2468926906585693,
        2.2468929290771484,
        2.2468929290771484
      ],
      "mesh": 15
    },
    {
      "name": "group1909018237",
      "translation": [
        0.5034818649291992,
        0.7445969581604004,
        -1.2585309743881226
      ],
      "rotation": [
        0.018301397562026978,
        0.06468281894922256,
        -0.013795469887554646,
        0.9976427555084229
      ],
      "scale": [
        2.2468926906585693,
        2.2468929290771484,
        2.2468929290771484
      ],
      "mesh": 16
    },
    {
      "name": "group1638188736",
      "translation": [
        0.5034818649291992,
        0.7445969581604004,
        -1.2585309743881226
      ],
      "rotation": [
        0.018301397562026978,
        0.06468281894922256,
        -0.013795469887554646,
        0.9976427555084229
      ],
      "scale": [
        2.2468926906585693,
        2.2468929290771484,
        2.2468929290771484
      ],
      "mesh": 17
    },
    {
      "name": "group1013736083",
      "translation": [
        0.5034818649291992,
        0.7445969581604004,
        -1.2585309743881226
      ],
      "rotation": [
        0.018301397562026978,
        0.06468281894922256,
        -0.013795469887554646,
        0.9976427555084229
      ],
      "scale": [
        2.2468926906585693,
        2.2468929290771484,
        2.2468929290771484
      ],
      "mesh": 18
    },
    {
      "name": "group1124957205",
      "translation": [
        0.5034818649291992,
        0.7445969581604004,
        -1.2585309743881226
      ],
      "rotation": [
        0.018301397562026978,
        0.06468281894922256,
        -0.013795469887554646,
        0.9976427555084229
      ],
      "scale": [
        2.2468926906585693,
        2.2468929290771484,
        2.2468929290771484
      ],
      "mesh": 19
    },
    {
      "name": "group1113113092",
      "translation": [
        0.5034818649291992,
        0.7445969581604004,
        -1.2585309743881226
      ],
      "rotation": [
        0.018301397562026978,
        0.06468281894922256,
        -0.013795469887554646,
        0.9976427555084229
      ],
      "scale": [
        2.2468926906585693,
        2.2468929290771484,
        2.2468929290771484
      ],
      "mesh": 20
    },
    {
      "name": "group15167646",
      "translation": [
        0.5034818649291992,
        0.7445969581604004,
        -1.2585309743881226
      ],
      "rotation": [
        0.018301397562026978,
        0.06468281894922256,
        -0.013795469887554646,
        0.9976427555084229
      ],
      "scale": [
        2.2468926906585693,
        2.2468929290771484,
        2.2468929290771484
      ],
      "mesh": 21
    },
    {
      "name": "group291280508",
      "translation": [
        0.5034818649291992,
        0.7445969581604004,
        -1.2585309743881226
      ],
      "rotation": [
        0.018301397562026978,
        0.06468281894922256,
        -0.013795469887554646,
        0.9976427555084229
      ],
      "scale": [
        2.2468926906585693,
        2.2468929290771484,
        2.2468929290771484
      ],
      "mesh": 22
    },
    {
      "name": "group261416222",
      "translation": [
        0.5034818649291992,
        0.7445969581604004,
        -1.2585309743881226
      ],
      "rotation": [
        0.018301397562026978,
        0.06468281894922256,
        -0.013795469887554646,
        0.9976427555084229
      ],
      "scale": [
        2.2468926906585693,
        2.2468929290771484,
        2.2468929290771484
      ],
      "mesh": 23
    },
    {
      "name": "group1910001921",
      "translation": [
        0.5034818649291992,
        0.7445969581604004,
        -1.2585309743881226
      ],
      "rotation": [
        0.018301397562026978,
        0.06468281894922256,
        -0.013795469887554646,
        0.9976427555084229
      ],
      "scale": [
        2.2468926906585693,
        2.2468929290771484,
        2.2468929290771484
      ],
      "mesh": 24
    },
    {
      "name": "group1251928019",
      "translation": [
        0.5034818649291992,
        0.7445969581604004,
        -1.2585309743881226
      ],
      "rotation": [
        0.018301397562026978,
        0.06468281894922256,
        -0.013795469887554646,
        0.9976427555084229
      ],
      "scale": [
        2.2468926906585693,
        2.2468929290771484,
        2.2468929290771484
      ],
      "mesh": 25
    },
    {
      "name": "group1821786415",
      "translation": [
        0.5034818649291992,
        0.7445969581604004,
        -1.2585309743881226
      ],
      "rotation": [
        0.018301397562026978,
        0.06468281894922256,
        -0.013795469887554646,
        0.9976427555084229
      ],
      "scale": [
        2.2468926906585693,
        2.2468929290771484,
        2.2468929290771484
      ],
      "mesh": 26
    },
    {
      "name": "group1896686979",
      "translation": [
        0.5034818649291992,
        0.7445969581604004,
        -1.2585309743881226
      ],
      "rotation": [
        0.018301397562026978,
        0.06468281894922256,
        -0.013795469887554646,
        0.9976427555084229
      ],
      "scale": [
        2.2468926906585693,
        2.2468929290771484,
        2.2468929290771484
      ],
      "mesh": 27
    }
  ],
  "scenes": [
    {
      "name": "Scene",
      "nodes": [
        0,
        1,
        2,
        3,
        4,
        5,
        6,
        7,
        8,
        9,
        10,
        11,
        12,
        13,
        14,
        15,
        16,
        17,
        18,
        19,
        20,
        21,
        22,
        23,
        24,
        25,
        26,
        27
      ]
    }
  ],
  "scene": 0
}